<?xml version="1.0" encoding="utf-8"?>
<!-- Generator: Adobe Illustrator 28.4.1, SVG Export Plug-In . SVG Version: 6.00 Build 0)  -->
<svg version="1.1" id="Layer_1" xmlns="http://www.w3.org/2000/svg" xmlns:xlink="http://www.w3.org/1999/xlink" x="0px" y="0px"
	 viewBox="0 0 256 256" style="enable-background:new 0 0 256 256;" xml:space="preserve">
<g id="Layer_2_00000065047169181629844270000002708237785512253600_">
	<path d="M188.7,10H67.3c-9,0-16.3,7.4-16.4,16.4v203.2c0,9,7.4,16.4,16.4,16.4h121.4c9,0,16.3-7.4,16.3-16.4V26.4
		C205,17.4,197.7,10,188.7,10z M79.1,44.3h97v139.1h-97C79.1,183.4,79.1,44.3,79.1,44.3z M117.5,217.7c0-5.9,4.8-10.7,10.7-10.7
		s10.7,4.8,10.7,10.7s-4.8,10.7-10.7,10.7S117.5,223.6,117.5,217.7z"/>
</g>
</svg>
