<?xml version="1.0" encoding="utf-8"?>
<!-- Generator: Adobe Illustrator 28.4.1, SVG Export Plug-In . SVG Version: 6.00 Build 0)  -->
<svg version="1.1"
	 id="svg1" xmlns:sodipodi="http://sodipodi.sourceforge.net/DTD/sodipodi-0.dtd" xmlns:inkscape="http://www.inkscape.org/namespaces/inkscape" xmlns:svg="http://www.w3.org/2000/svg"
	 xmlns="http://www.w3.org/2000/svg" xmlns:xlink="http://www.w3.org/1999/xlink" x="0px" y="0px" viewBox="0 0 512 512"
	 style="enable-background:new 0 0 512 512;" xml:space="preserve">
<path d="M0,512h512V0H0V512z M83.7,290.7l140.2-179c5.3-6.6,11.9-12.1,19.8-14.3c5-1.9,10.9-1.8,16.1-1.8c11,0,21.5,4.4,28.2,12.8
	l138.1,183.9c12,15,7.6,36.9-9.9,49.1c-5.9,4.1-12.4,6.5-19,7.5c-3.4,0.8-7,1.2-10.7,1.2h-77.4l-109.4,0h-80.7
	c-2.9,0-5.6-0.3-8.3-0.7c-6.8-0.7-13.4-3-19.3-7.1C74.1,330,70.6,307,83.7,290.7z"/>
</svg>
